<?xml version="1.0" encoding="UTF-8" standalone="no"?>
<svg
   xmlns:dc="http://purl.org/dc/elements/1.1/"
   xmlns:cc="http://creativecommons.org/ns#"
   xmlns:rdf="http://www.w3.org/1999/02/22-rdf-syntax-ns#"
   xmlns:svg="http://www.w3.org/2000/svg"
   xmlns="http://www.w3.org/2000/svg"
   xmlns:sodipodi="http://sodipodi.sourceforge.net/DTD/sodipodi-0.dtd"
   xmlns:inkscape="http://www.inkscape.org/namespaces/inkscape"
   height="512"
   width="1415.0483"
   xml:space="preserve"
   viewBox="0 0 1415.0483 512"
   y="0px"
   x="0px"
   id="Layer_1"
   version="1.1"
   sodipodi:docname="knowprocess-logo-2words.svg"
   inkscape:export-filename="/home/tstephen/Downloads/knowprocess-logo-2018/knowprocess-logo-1500x550.png"
   inkscape:export-xdpi="102.5625"
   inkscape:export-ydpi="102.5625"
   inkscape:version="0.92.5 (2060ec1f9f, 2020-04-08)"><sodipodi:namedview
   pagecolor="#ffffff"
   bordercolor="#666666"
   borderopacity="1"
   objecttolerance="10"
   gridtolerance="10"
   guidetolerance="10"
   inkscape:pageopacity="0"
   inkscape:pageshadow="2"
   inkscape:window-width="1920"
   inkscape:window-height="997"
   id="namedview34"
   showgrid="false"
   inkscape:zoom="0.9"
   inkscape:cx="899.17851"
   inkscape:cy="256"
   inkscape:window-x="0"
   inkscape:window-y="28"
   inkscape:window-maximized="1"
   inkscape:current-layer="Layer_1" /><metadata
   id="metadata1011"><rdf:RDF><cc:Work
       rdf:about=""><dc:format>image/svg+xml</dc:format><dc:type
         rdf:resource="http://purl.org/dc/dcmitype/StillImage" /><dc:title /></cc:Work></rdf:RDF></metadata><defs
   id="defs1009" /><path
   id="path948"
   d="m 399.473,232.493 v 47.014 l -30.067,2.791 c -2.948,12.716 -8.001,24.644 -14.752,35.39 l 19.31,23.259 -33.139,33.128 -23.304,-19.355 c -10.758,6.707 -22.674,11.714 -35.379,14.64 l -2.791,30.112 h -46.856 l -2.802,-30.202 c -12.671,-2.959 -24.542,-7.989 -35.255,-14.719 l -23.383,19.411 -33.128,-33.139 19.456,-23.428 c -6.684,-10.713 -11.68,-22.584 -14.606,-35.244 L 112.53,279.349 V 232.65 l 30.247,-2.802 c 2.926,-12.659 7.922,-24.531 14.606,-35.244 l -19.456,-23.428 33.128,-33.139 23.383,19.411 c 10.713,-6.729 22.584,-11.759 35.255,-14.719 l 2.802,-30.202 h 46.856 l 2.791,30.112 c 12.704,2.926 24.621,7.933 35.379,14.64 l 23.304,-19.355 33.139,33.128 -19.31,23.259 c 6.752,10.746 11.804,22.674 14.752,35.39 z M 324.642,256 c 0,-37.852 -30.79,-68.642 -68.642,-68.642 -37.852,0 -68.642,30.79 -68.642,68.642 0,37.852 30.79,68.642 68.642,68.642 37.852,0 68.642,-30.79 68.642,-68.642 z"
   style="fill:#bbd3d3" /><path
   id="path950"
   d="M 256,337.582 244.747,320.703 256,303.824 c 26.365,0 47.824,-21.459 47.824,-47.824 0,-26.365 -21.459,-47.824 -47.824,-47.824 L 244.747,191.297 256,174.418 c 44.988,0 81.582,36.594 81.582,81.582 0,44.988 -36.594,81.582 -81.582,81.582 z"
   style="fill:#779c95" /><path
   id="path952"
   d="m 256,303.824 v 33.758 c -44.988,0 -81.582,-36.594 -81.582,-81.582 0,-44.988 36.594,-81.582 81.582,-81.582 v 33.758 c -26.365,0 -47.824,21.459 -47.824,47.824 0,26.365 21.459,47.824 47.824,47.824 z"
   style="fill:#9bbeb8" /><path
   id="path962"
   d="m 512,256 h -67.516 c 0,-51.965 -21.133,-99.092 -55.273,-133.21 l 0.068,-0.068 -4.621,-40.389 52.365,-7.345 C 485.20438,123.56381 512,183.45594 512,256 Z"
   style="fill:#cc86c4" /><g
   id="g960"><path
     id="path956"
     d="m 444.484,256 c 33.2249,-0.34393 34.29097,0.12784 67.516,0 0,30.416 -6.87097,70.903 -19.49,97.966 l -55.622,0.045 -6.752,-25.881 c 9.25,-22.224 14.348,-46.597 14.348,-72.13 z"
     style="fill:#a86994" /></g><path
   id="path966"
   d="m 389.278,122.722 -0.068,0.068 C 355.092,88.649 307.965,67.516 256,67.516 c -51.965,0 -99.092,21.133 -133.21,55.273 L 122.722,122.721 77.08,122.085 75,74.988 C 121.316,28.649 185.322,0 256,0 c 0.957,0 1.913,0.011 2.869,0.023 65.851,0.956 136.69791,31.81767 178.142,74.966 z"
   style="fill:#ecd8e6" /><path
   id="path968"
   d="m 122.722,122.722 0.068,0.068 C 88.649,156.908 67.516,204.035 67.516,256 L 33.758,289.758 0,256 C 0,185.31 28.649,121.305 74.988,74.988 c 0.012,0 47.734,47.734 47.734,47.734 z"
   style="fill:#d0c6de" /><path
   id="path970"
   d="M 256,444.484 289.758,478.242 256,512 C 114.62,512 0,397.38 0,256 h 67.516 c 0,103.93 84.554,188.484 188.484,188.484 z"
   style="fill:#a86994" /><path
   id="path974"
   d="m 256,512 v -67.516 c 78.398,0 145.768,-48.105 174.136,-116.353 l 62.43,25.858 C 458.54662,442.99563 353.966,510.594 258.869,511.978 257.913,511.989 256.957,512 256,512 Z"
   style="fill:#9e3472" /><g
   id="g976" /><g
   id="g978" /><g
   id="g980" /><g
   id="g982" /><g
   id="g984" /><g
   id="g986" /><g
   id="g988" /><g
   id="g990" /><g
   id="g992" /><g
   id="g994" /><g
   id="g996" /><g
   id="g998" /><g
   id="g1000" /><g
   id="g1002" /><g
   id="g1004" /><text
   y="4"
   x="29.600643"
   id="text33"
   xml:space="preserve"><tspan
     y="269"
     x="550"
     style="font-style:normal;font-weight:bold;font-size:350px;line-height:2;font-family:Signika;letter-spacing:0px;word-spacing:0px;fill:#779c95;fill-opacity:1;stroke:none"
     id="tspan31">Know</tspan></text>

<text
   style="font-size:290px"
   y="-24.825409"
   x="30.020655"
   id="text34"
   xml:space="preserve"><tspan
     style="font-style:normal;font-variant:normal;font-weight:300;font-stretch:normal;font-size:280px;line-height:2;font-family:Signika;-inkscape-font-specification:'Signika Light';letter-spacing:-10px;word-spacing:0px;fill:#9e3472;fill-opacity:1;stroke:none"
     id="tspan35"
     y="480.17459"
     x="550">Process</tspan></text>



</svg>